<svg id="Capa_1" enable-background="new 0 0 512 512" viewBox="0 0 512 512" xmlns="http://www.w3.org/2000/svg"><g><path d="m401.462 211.209v-159.188c0-28.685-23.336-52.021-52.021-52.021s-52.021 23.336-52.021 52.021v159.188h-78.327v85.826c0 85.818-33.658 148.638-53.769 186.171-1.271 2.373-2.48 4.629-3.614 6.768l-11.677 22.026h308.039l2.678-11.635c19.04-82.706 19.04-127.983 19.04-202.994v-86.162zm-52.021-181.209c12.143 0 22.021 9.878 22.021 22.021v18.687h-44.042v-18.687c0-12.143 9.879-22.021 22.021-22.021zm-22.021 70.708h44.042v110.501h-44.042zm122.37 140.501v40.826h-200.697v-40.826zm-70.007 70.827c-.077 60.978-1.142 103-15.672 169.964h-94.201c19.288-37.178 45.642-95.404 48.842-169.964zm-131.013 0h39.969c-3.554 77.292-33.801 134.554-52.769 169.964h-36.06c19.289-37.18 45.663-95.399 48.86-169.964zm146.018 169.964c13.903-66.258 14.922-108.87 14.995-169.964h39.999c-.076 60.983-1.13 102.987-15.665 169.964z"/><path d="m32.21 367h30v30h-30z"/><path d="m62.21 457h30v30h-30z"/><path d="m122.21 397h30v30h-30z"/></g></svg>
