<svg id="Layer_1" enable-background="new 0 0 512 512" viewBox="0 0 512 512" fill='#004411' xmlns="http://www.w3.org/2000/svg">
  <path
    d="m497 199.92h-33.479c-4.807-17.856-11.887-34.931-21.142-50.991l23.688-23.688c5.858-5.858 5.858-15.355 0-21.213l-58.095-58.095c-5.857-5.858-15.355-5.858-21.213 0l-23.689 23.688c-16.06-9.255-33.135-16.335-50.991-21.142v-33.479c0-8.284-6.716-15-15-15h-82.159c-8.284 0-15 6.716-15 15v33.479c-17.855 4.807-34.931 11.887-50.991 21.142l-23.688-23.688c-5.857-5.858-15.355-5.858-21.213 0l-58.095 58.095c-5.858 5.858-5.858 15.355 0 21.213l23.688 23.688c-9.255 16.06-16.335 33.135-21.142 50.991h-33.479c-8.284 0-15 6.716-15 15v82.159c0 8.284 6.716 15 15 15h33.479c4.807 17.855 11.887 34.931 21.142 50.991l-23.688 23.688c-5.858 5.858-5.858 15.355 0 21.213l58.095 58.095c5.857 5.858 15.355 5.858 21.213 0l23.688-23.688c16.061 9.256 33.133 16.335 50.991 21.143v33.479c0 8.284 6.716 15 15 15h82.159c8.284 0 15-6.716 15-15v-33.479c17.857-4.807 34.93-11.886 50.991-21.143l23.688 23.688c5.857 5.858 15.355 5.858 21.213 0l58.095-58.095c5.858-5.858 5.858-15.355 0-21.213l-23.688-23.688c9.255-16.06 16.335-33.135 21.142-50.991h33.48c8.284 0 15-6.716 15-15v-82.159c0-8.284-6.716-15-15-15zm-15 82.16h-30.313c-7.103 0-13.231 4.981-14.683 11.933-4.705 22.525-13.504 43.749-26.153 63.083-3.888 5.942-3.076 13.797 1.946 18.819l21.451 21.451-36.882 36.882-21.451-21.451c-5.022-5.022-12.876-5.833-18.819-1.946-19.333 12.649-40.556 21.448-63.083 26.153-6.952 1.452-11.933 7.581-11.933 14.683v30.313h-52.16v-30.313c0-7.102-4.981-13.231-11.933-14.683-22.526-4.705-43.75-13.504-63.083-26.153-5.94-3.888-13.796-3.077-18.819 1.946l-21.451 21.451-36.882-36.882 21.451-21.451c5.022-5.021 5.834-12.876 1.946-18.819-12.649-19.333-21.449-40.557-26.153-63.083-1.452-6.952-7.581-11.933-14.683-11.933h-30.313v-52.16h30.313c7.103 0 13.231-4.981 14.683-11.933 4.705-22.526 13.504-43.75 26.153-63.082 3.889-5.943 3.077-13.798-1.945-18.819l-21.451-21.451 36.882-36.882 21.451 21.451c5.022 5.022 12.876 5.833 18.819 1.946 19.333-12.649 40.557-21.449 63.083-26.153 6.952-1.452 11.933-7.581 11.933-14.683v-30.314h52.159v30.313c0 7.103 4.981 13.231 11.933 14.683 22.525 4.705 43.749 13.504 63.083 26.153 5.942 3.888 13.797 3.077 18.819-1.946l21.451-21.451 36.882 36.882-21.451 21.451c-5.022 5.021-5.834 12.876-1.945 18.819 12.649 19.332 21.448 40.556 26.153 63.082 1.452 6.952 7.581 11.933 14.683 11.933h30.312z" />
  <path
    d="m256 110c-80.505 0-146 65.495-146 146s65.495 146 146 146 146-65.495 146-146-65.495-146-146-146zm0 262c-63.962 0-116-52.038-116-116s52.038-116 116-116 116 52.038 116 116-52.038 116-116 116z" />
  <path
    d="m195.75 229.875h86.635l-4.578 5.045c-5.566 6.135-5.106 15.622 1.029 21.188 2.873 2.606 6.479 3.891 10.075 3.891 4.084 0 8.153-1.658 11.113-4.92l27.333-30.125c5.188-5.718 5.188-14.441 0-20.159l-27.333-30.125c-5.567-6.135-15.053-6.596-21.188-1.029s-6.596 15.053-1.029 21.188l4.578 5.045h-86.635c-8.284 0-15 6.716-15 15s6.716 15.001 15 15.001z" />
  <path
    d="m316.25 282.125h-86.635l4.578-5.045c5.566-6.135 5.106-15.622-1.029-21.188-6.135-5.567-15.622-5.106-21.188 1.029l-27.333 30.125c-5.188 5.718-5.188 14.441 0 20.159l27.333 30.125c2.961 3.263 7.029 4.92 11.113 4.92 3.595 0 7.203-1.285 10.075-3.891 6.135-5.567 6.596-15.053 1.029-21.188l-4.578-5.045h86.635c8.284 0 15-6.716 15-15s-6.716-15.001-15-15.001z" />
</svg>
