<?xml version="1.0" encoding="UTF-8"?>
<svg version="1.1" xmlns="http://www.w3.org/2000/svg" width="32" height="32">
<path d="M0 0 C4.8846525 2.26787438 7.73212562 5.1153475 10 10 C10.75381535 15.5997712 10.77303575 20.33499991 8.375 25.5 C3.80134327 30.3143755 0.6912538 32.25156236 -6 32.5 C-12.6912538 32.25156236 -15.80134327 30.3143755 -20.375 25.5 C-22.77303575 20.33499991 -22.75381535 15.5997712 -22 10 C-17.52212837 0.3553534 -9.85292056 -1.32635469 0 0 Z " fill="#6857C3" transform="translate(22,0)"/>
<path d="M0 0 C4.36977099 2.38351145 4.36977099 2.38351145 6 5 C6.93503108 10.12198442 6.60126914 14.45826799 4 19 C4.66 19.99 5.32 20.98 6 22 C5.360625 21.855625 4.72125 21.71125 4.0625 21.5625 C1.15792106 20.96055754 1.15792106 20.96055754 -1.1953125 20.88671875 C-5.1106726 20.66058409 -7.37601546 20.47179319 -10.5625 18.0625 C-12.63183 13.6539274 -12.89351053 9.7810651 -12 5 C-8.72103797 0.03187571 -5.82716051 -1.02230886 0 0 Z " fill="#F7F6FB" transform="translate(19,5)"/>
<path d="M0 0 C3 -0.375 3 -0.375 6 0 C8.4294516 3.6441774 8.16179575 5.71241272 8 10 C5 10 5 10 2 9 C2.66 10.32 3.32 11.64 4 13 C1.13275314 12.42655063 0.1385485 12.1385485 -2 10 C-2.31537716 5.66356399 -2.44897847 3.67346771 0 0 Z " fill="#6C5CC4" transform="translate(13,9)"/>
</svg>
